<?xml version="1.0" standalone="no"?>
<!DOCTYPE svg PUBLIC "-//W3C//DTD SVG 20010904//EN"
 "http://www.w3.org/TR/2001/REC-SVG-20010904/DTD/svg10.dtd">
<svg version="1.0" xmlns="http://www.w3.org/2000/svg"
 width="294.000000pt" height="103.000000pt" viewBox="0 0 294.000000 103.000000"
 preserveAspectRatio="xMidYMid meet">
<metadata>
Created by potrace 1.16, written by Peter Selinger 2001-2019
</metadata>
<g transform="translate(0.000000,103.000000) scale(0.100000,-0.100000)"
fill="#000000" stroke="none">
<path d="M2805 920 c-57 -86 -203 -240 -227 -240 -35 0 -22 35 64 177 48 79
53 103 22 103 -22 0 -57 -42 -94 -112 -65 -124 -146 -207 -187 -191 -26 10
-14 77 31 171 37 75 42 93 31 102 -27 22 -90 -29 -193 -155 -17 -22 -32 -37
-32 -34 0 3 11 38 25 78 13 41 22 77 19 82 -3 5 -15 9 -28 9 -27 0 -74 -48
-160 -164 -36 -49 -66 -84 -66 -78 0 6 14 49 31 97 17 48 28 93 25 101 -11 28
-39 -1 -81 -87 -52 -106 -93 -167 -135 -203 -37 -31 -76 -34 -85 -7 -7 24 18
101 56 168 33 59 36 81 14 89 -24 10 -89 -41 -151 -118 -31 -38 -58 -67 -60
-65 -2 2 5 30 16 62 32 93 23 122 -28 90 -32 -21 -41 -31 -134 -152 -39 -51
-72 -93 -74 -93 -2 0 13 45 32 101 26 71 33 104 26 111 -17 17 -40 -8 -72 -79
-54 -118 -164 -263 -200 -263 -24 0 -8 76 31 154 23 44 45 85 50 90 5 6 9 20
9 33 0 18 -6 23 -24 23 -26 0 -44 -25 -127 -175 -48 -87 -120 -170 -141 -162
-30 10 3 126 67 232 23 38 32 62 26 68 -19 19 -60 -23 -116 -117 -55 -95 -72
-138 -35 -95 l19 24 -9 -35 c-14 -50 -13 -65 9 -91 19 -23 20 -23 55 -7 20 10
55 42 78 73 l43 55 3 -35 c4 -44 37 -70 74 -56 27 10 79 65 127 134 17 26 33
47 35 47 2 0 -2 -24 -9 -53 -13 -56 -6 -87 19 -87 8 0 37 42 66 94 49 88 147
222 156 213 3 -2 -7 -46 -21 -98 -30 -112 -33 -182 -9 -177 10 2 25 28 38 64
24 64 94 171 141 214 l28 25 -8 -25 c-37 -123 -44 -161 -34 -189 12 -34 35
-45 73 -35 23 5 110 89 149 144 14 20 17 21 12 5 -16 -51 -17 -111 -2 -123 18
-16 33 2 96 117 40 74 140 199 140 176 1 -5 -10 -50 -24 -100 -31 -111 -33
-165 -6 -165 13 0 22 12 31 45 15 54 62 135 115 199 57 67 66 64 39 -12 -39
-110 -28 -182 27 -182 29 0 69 23 103 59 l30 31 12 -30 c14 -32 39 -38 77 -19
12 6 59 50 104 97 l82 87 -16 -70 c-25 -113 -71 -222 -112 -266 -43 -44 -62
-48 -108 -19 -42 25 -43 10 -2 -24 35 -29 37 -30 76 -15 68 25 116 102 173
274 18 55 46 129 62 164 50 113 13 126 -57 21z"/>
<path d="M429 911 c-122 -48 -222 -124 -294 -226 -73 -102 -92 -182 -59 -251
17 -35 58 -64 91 -64 37 0 119 48 161 94 55 59 46 74 -11 19 -62 -60 -87 -73
-133 -73 -91 0 -109 96 -43 220 22 42 60 88 118 141 102 96 187 142 252 137
43 -3 44 -4 47 -40 4 -46 -28 -123 -125 -299 -59 -109 -75 -148 -80 -193 -10
-93 33 -129 106 -91 45 23 104 96 224 277 61 92 112 166 113 165 4 -4 -131
-387 -165 -469 -80 -190 -190 -270 -244 -178 -20 33 -35 38 -44 14 -9 -25 38
-65 84 -71 83 -11 165 60 233 202 51 106 255 664 246 673 -19 18 -63 -30 -115
-125 -97 -177 -279 -416 -342 -449 -26 -13 -30 -13 -35 1 -16 42 6 112 84 264
110 215 128 283 86 326 -21 20 -98 19 -155 -4z"/>
</g>
</svg>
