<?xml version="1.0" standalone="no"?>
<!DOCTYPE svg PUBLIC "-//W3C//DTD SVG 20010904//EN"
 "http://www.w3.org/TR/2001/REC-SVG-20010904/DTD/svg10.dtd">
<svg version="1.0" xmlns="http://www.w3.org/2000/svg"
 width="252.000000pt" height="166.000000pt" viewBox="0 0 252.000000 166.000000"
 preserveAspectRatio="xMidYMid meet">
<metadata>
Created by potrace 1.16, written by Peter Selinger 2001-2019
</metadata>
<g transform="translate(0.000000,166.000000) scale(0.100000,-0.100000)"
fill="#000000" stroke="none">
<path d="M510 1531 c-124 -40 -249 -125 -332 -225 -70 -83 -98 -146 -98 -219
0 -52 3 -62 30 -89 29 -28 35 -30 86 -26 68 6 125 43 172 112 35 52 43 110 17
120 -11 4 -15 -2 -15 -27 0 -43 -40 -115 -83 -150 -48 -40 -120 -43 -149 -7
-16 20 -19 35 -15 76 9 83 58 168 153 261 99 97 218 163 308 171 49 4 55 2 75
-24 30 -39 24 -68 -53 -234 l-63 -135 -53 -12 c-52 -11 -79 -27 -67 -39 3 -3
27 1 52 10 26 8 45 12 43 7 -2 -4 -33 -68 -70 -142 -37 -74 -69 -145 -70 -159
-4 -37 25 -37 64 0 18 18 27 28 19 24 -23 -12 -6 36 60 172 l61 123 69 11 c38
7 69 16 69 21 0 11 -8 11 -72 0 -27 -4 -48 -7 -48 -5 0 1 29 62 65 135 63 130
76 179 59 224 -18 45 -118 57 -214 26z"/>
<path d="M2010 1528 c-5 -13 -11 -39 -14 -59 -4 -19 -27 -75 -52 -123 -62
-121 -51 -130 15 -12 50 90 54 94 74 83 12 -7 23 -13 25 -14 2 0 -4 -22 -12
-47 -24 -70 -21 -139 7 -172 21 -24 28 -26 62 -20 45 9 138 92 174 157 32 56
11 46 -32 -16 -43 -64 -109 -115 -148 -115 -60 0 -56 74 10 196 47 87 39 112
-25 69 -57 -39 -73 -30 -49 29 8 19 15 42 15 51 0 24 -39 18 -50 -7z"/>
<path d="M1556 1452 c-3 -5 9 -19 26 -32 28 -20 30 -26 25 -67 -3 -28 -18 -64
-42 -100 -48 -73 -156 -182 -162 -165 -3 7 7 67 22 132 14 66 23 124 20 130
-6 9 -45 15 -45 6 0 -2 -9 -41 -21 -86 -30 -124 -129 -259 -166 -228 -19 16
-11 58 33 160 36 85 37 108 6 108 -11 0 -25 7 -32 15 -42 50 -152 -35 -248
-193 -61 -98 -111 -155 -155 -173 -26 -11 -31 -10 -44 7 -8 12 -11 30 -7 49 9
45 67 182 129 304 30 60 51 111 48 115 -13 13 -40 5 -61 -17 -31 -32 -95 -176
-132 -294 -37 -117 -36 -166 5 -185 52 -24 121 15 179 102 l16 24 0 -27 c0
-54 69 -86 113 -53 10 8 36 37 57 66 37 50 39 51 42 24 2 -15 15 -36 31 -48
26 -19 30 -19 55 -5 15 8 43 36 62 62 l35 47 5 -42 c4 -38 8 -43 32 -46 68 -8
258 238 258 334 0 18 -8 41 -17 52 -21 23 -59 37 -67 24z m-368 -239 c-47
-102 -101 -187 -131 -208 -55 -38 -82 4 -52 81 22 57 101 162 145 192 18 12
43 22 56 22 22 0 22 -2 -18 -87z"/>
<path d="M1756 1419 c-38 -33 -111 -168 -122 -225 -8 -41 11 -91 36 -99 32
-10 70 6 103 46 40 46 87 136 91 173 2 16 17 39 37 56 l34 30 -30 -15 c-41
-20 -45 -19 -45 13 0 59 -50 69 -104 21z m62 -68 c29 -25 28 -42 -9 -111 -37
-69 -91 -125 -113 -117 -38 15 4 159 66 224 26 27 27 27 56 4z"/>
<path d="M656 799 c-162 -32 -372 -192 -444 -338 -37 -76 -38 -167 -4 -204 30
-32 61 -40 112 -28 86 19 180 117 180 187 0 50 -15 48 -28 -3 -34 -125 -152
-202 -223 -144 -19 15 -24 29 -24 68 0 159 237 401 432 442 85 18 131 -14 120
-84 -6 -39 -123 -297 -139 -306 -6 -4 -30 -10 -54 -14 -46 -7 -83 -35 -46 -35
11 0 33 5 48 10 15 6 28 9 30 7 2 -2 -25 -62 -61 -133 -74 -146 -88 -194 -59
-194 11 0 35 14 54 30 19 17 27 27 18 24 -10 -3 -18 -3 -18 0 0 11 92 211 113
246 27 44 31 47 86 55 62 8 82 15 76 24 -2 5 -24 5 -47 0 -84 -16 -84 -20 -19
109 73 145 87 193 70 234 -6 16 -19 33 -28 37 -28 15 -95 19 -145 10z"/>
<path d="M2312 732 c-20 -20 -68 -79 -106 -130 -37 -50 -70 -92 -72 -92 -5 0
22 82 46 137 22 52 21 88 -3 80 -15 -5 -149 -237 -144 -251 2 -5 13 7 26 27
12 20 25 37 27 37 2 0 1 -25 -2 -55 -6 -52 4 -85 26 -85 5 0 27 34 49 76 44
82 95 161 135 209 l25 30 -29 -85 c-32 -91 -36 -124 -20 -164 12 -34 49 -34
88 -2 35 30 112 143 112 165 0 8 -16 -9 -36 -39 -42 -64 -93 -120 -110 -120
-37 0 -25 67 32 182 24 48 44 94 44 103 0 29 -48 17 -88 -23z"/>
<path d="M1905 677 c-22 -24 -63 -85 -89 -137 -54 -105 -147 -210 -184 -210
-42 0 -33 60 28 181 27 53 46 100 43 103 -4 3 -16 6 -29 6 -26 0 -52 -38 -79
-115 -10 -27 -29 -65 -43 -83 -22 -31 -76 -72 -94 -72 -15 0 -8 213 8 255 22
58 22 70 -3 73 -18 3 -40 -21 -120 -130 -54 -73 -115 -159 -137 -191 -43 -64
-102 -121 -117 -112 -22 14 -6 75 46 174 30 57 52 107 49 112 -3 5 -16 9 -29
9 -25 0 -44 -26 -126 -175 -48 -87 -120 -170 -141 -162 -30 10 3 126 67 232
24 39 32 62 25 69 -18 18 -54 -12 -91 -77 -20 -34 -48 -83 -63 -109 -29 -51
-23 -68 7 -20 l17 27 -7 -30 c-13 -49 -8 -97 11 -111 35 -25 91 12 150 100
l26 39 0 -32 c0 -50 16 -71 53 -71 34 0 78 37 126 107 l22 33 33 -43 c31 -40
35 -42 84 -42 38 1 57 6 74 22 13 11 37 27 53 36 17 8 43 27 58 41 15 14 29
26 30 26 2 0 4 -14 5 -32 3 -41 18 -58 52 -58 37 0 88 36 130 93 l35 47 6 -33
c8 -48 16 -57 54 -57 24 0 45 9 69 31 37 32 106 157 106 192 0 11 15 33 33 49
21 19 25 25 10 18 -31 -15 -43 -13 -43 8 0 28 -29 62 -52 62 -12 0 -40 -19
-63 -43z m72 -66 c22 -18 22 -21 9 -59 -38 -107 -130 -197 -150 -146 -10 27
-7 47 20 104 30 65 70 120 87 120 7 -1 22 -9 34 -19z m-560 -154 c-6 -113 -19
-137 -73 -137 -35 0 -74 37 -74 71 0 17 64 119 111 177 23 28 24 28 32 8 5
-12 7 -65 4 -119z"/>
</g>
</svg>
