<?xml version="1.0" standalone="no"?>
<!DOCTYPE svg PUBLIC "-//W3C//DTD SVG 20010904//EN"
 "http://www.w3.org/TR/2001/REC-SVG-20010904/DTD/svg10.dtd">
<svg version="1.0" xmlns="http://www.w3.org/2000/svg"
 width="320.000000pt" height="104.000000pt" viewBox="0 0 320.000000 104.000000"
 preserveAspectRatio="xMidYMid meet">
<metadata>
Created by potrace 1.16, written by Peter Selinger 2001-2019
</metadata>
<g transform="translate(0.000000,104.000000) scale(0.100000,-0.100000)"
fill="#000000" stroke="none">
<path d="M2877 873 c-52 -71 -110 -153 -130 -184 -41 -66 -104 -132 -120 -126
-29 9 -17 61 38 169 30 60 53 113 50 118 -12 20 -45 9 -68 -22 -13 -18 -46
-73 -73 -122 -53 -96 -126 -186 -151 -186 -29 0 -9 87 46 194 31 62 47 104 41
110 -18 18 -58 -24 -114 -121 -56 -99 -72 -140 -37 -94 18 23 18 23 13 -33 -5
-61 7 -86 41 -86 20 0 106 80 140 130 l17 25 -6 -27 c-8 -35 3 -66 28 -79 32
-17 71 6 124 73 l47 60 23 -29 c13 -15 23 -31 24 -34 0 -4 12 -12 28 -18 33
-13 80 -2 120 29 15 12 48 35 75 51 28 17 60 48 77 76 32 49 41 85 12 44 -35
-50 -110 -121 -127 -121 -16 0 -17 11 -13 123 3 90 9 131 22 155 19 36 15 52
-14 52 -11 0 -51 -45 -113 -127z m70 -92 c-6 -114 -11 -127 -45 -139 -38 -13
-78 4 -92 38 -15 35 -2 65 71 164 45 61 53 67 62 51 6 -11 8 -57 4 -114z"/>
<path d="M2206 780 c-20 -18 -56 -73 -86 -130 -52 -101 -142 -213 -180 -223
-27 -7 -44 17 -36 54 3 17 26 71 52 121 44 88 49 118 20 118 -24 0 -62 -55
-87 -126 -20 -56 -37 -82 -94 -141 -57 -59 -76 -73 -101 -73 -16 0 -35 5 -42
12 -32 32 10 148 82 221 52 54 71 61 55 20 -7 -18 -6 -30 1 -37 26 -26 75 48
54 82 -18 29 -65 26 -109 -6 -40 -28 -52 -45 -134 -174 -49 -76 -131 -158
-160 -158 -43 0 -33 57 35 193 37 72 42 89 29 93 -36 14 -61 -15 -106 -128
-34 -83 -82 -146 -132 -172 -46 -25 -67 -16 -67 29 0 45 34 133 117 299 64
127 69 152 27 144 -29 -5 -69 -74 -120 -203 -72 -185 -83 -205 -155 -278 -56
-58 -71 -68 -95 -65 -20 2 -33 12 -42 31 -18 36 -7 64 26 72 64 14 172 121
172 169 0 80 -112 50 -180 -49 -92 -133 -92 -245 -1 -245 50 0 82 18 145 84
l61 63 2 -31 c6 -80 115 -74 179 9 31 41 44 44 44 12 0 -32 18 -47 56 -47 37
0 72 26 125 92 l39 50 0 -31 c0 -101 132 -89 223 20 l34 42 7 -36 c14 -76 85
-69 161 15 25 27 45 55 45 62 1 6 7 -7 15 -28 17 -48 31 -58 70 -51 53 9 151
144 159 219 2 16 17 39 37 56 l34 30 -30 -15 c-41 -20 -45 -19 -45 13 0 59
-50 69 -104 22z m62 -69 c29 -25 28 -42 -9 -111 -37 -69 -91 -125 -113 -117
-38 15 4 159 66 224 26 27 27 27 56 4z"/>
<path d="M406 765 c-172 -43 -316 -164 -316 -266 0 -51 8 -67 41 -84 40 -21
43 -19 20 11 -12 15 -21 36 -21 48 1 69 93 171 204 226 86 42 158 60 247 60
70 0 81 -3 125 -32 34 -23 57 -50 77 -88 26 -50 29 -62 25 -132 -11 -184 -149
-340 -349 -393 -68 -18 -121 -19 -162 -2 -58 25 -61 38 -23 88 19 25 56 85 84
134 119 214 150 262 200 313 28 30 50 58 46 63 -10 17 -63 9 -91 -15 -28 -23
-82 -115 -219 -369 -38 -70 -73 -128 -79 -128 -5 -1 -24 32 -41 72 -18 42 -38
75 -47 77 -22 5 -44 -33 -61 -108 -19 -78 -20 -130 -5 -164 22 -48 54 -42 120
21 l36 34 39 -23 c33 -19 52 -23 119 -22 192 3 382 120 457 280 76 163 34 310
-112 386 -38 19 -62 23 -150 25 -66 1 -127 -3 -164 -12z"/>
</g>
</svg>
